#!OML:ASF H:\BabyWalks\Project 1\Capture day 1\Session 1\baby.ASF
:FULLY-SPECIFIED
:DEGREES
358
root -11.5222 17.332 -1.78156 -18.3947 81.8816 -20.7781
lowerback 21.8299 0.358514 -5.0245
upperback 6.23806 -0.316121 -1.68031
thorax -5.33347 0.0392941 1.11857
lowerneck 0.0874288 2.30933 5.47224
upperneck -1.74412 3.10078 -1.73265
head -0.438925 1.53328 -1.46543
rclavicle -1.74931e-014 -1.74931e-014
rhumerus -48.9484 12.9349 -87.5359
rradius 43.8513
rwrist -0.843212
rhand -8.0677 -16.4484
rfingers 7.12502
rthumb 17.8437 -45.6497
lclavicle -1.74931e-014 -1.74931e-014
lhumerus -36.7623 -7.8083 71.8863
lradius 55.7757
lwrist -1.38262
lhand -7.33691 8.64841
lfingers 7.12502
lthumb 18.5468 37.7843
rfemur -24.9515 4.851 19.4896
rtibia 56.7081
rfoot -17.4473 17.4679
rtoes -17.135
lfemur -20.4116 1.83097 -15.67
ltibia 41.8382
lfoot -26.5032 -8.06596
ltoes 3.90549
359
root -11.4113 17.3526 -1.77274 -19.0934 82.0789 -21.5487
lowerback 21.8974 0.258205 -5.00528
upperback 6.22537 -0.44 -1.55847
thorax -5.37434 -0.0208767 1.27097
lowerneck 0.0787292 2.31531 5.44931
upperneck -1.7638 3.1073 -1.77642
head -0.442979 1.53657 -1.47549
rclavicle -2.38542e-015 2.8625e-014
rhumerus -49.1008 13.0104 -87.5038
rradius 43.7378
rwrist -0.819317
rhand -7.38595 -16.5264
rfingers 7.12502
rthumb 18.4996 -45.6667
lclavicle -2.38542e-015 2.8625e-014
lhumerus -36.3535 -8.04986 71.756
lradius 57.5185
lwrist -0.469776
lhand -7.55949 8.65367
lfingers 7.12502
lthumb 18.3327 37.8098
rfemur -25.6521 4.88683 19.6272
rtibia 55.289
rfoot -17.9319 16.8407
rtoes -17.0756
lfemur -19.8535 1.58521 -15.6689
ltibia 41.3878
lfoot -26.6973 -7.93546
ltoes 3.8233
360
root -11.2993 17.3748 -1.7633 -19.7709 82.2829 -22.3064
lowerback 21.957 0.158888 -4.98185
upperback 6.20885 -0.561332 -1.43516
thorax -5.41504 -0.0798332 1.4222
lowerneck 0.0840335 2.32081 5.43239
upperneck -1.79165 3.11397 -1.82448
head -0.451784 1.53987 -1.48831
rclavicle -2.90226e-014 -1.59028e-015
rhumerus -49.2504 13.0619 -87.4514
rradius 43.6148
rwrist -0.739049
rhand -6.81629 -16.5542
rfingers 7.12502
rthumb 19.0475 -45.6415
lclavicle -2.90226e-014 -1.59028e-015
lhumerus -35.9766 -8.30705 71.6182
lradius 59.2564
lwrist 0.377319
lhand -7.67675 8.5143
lfingers 7.12502
lthumb 18.2198 37.681
rfemur -26.3089 4.94923 19.7389
rtibia 53.7219
rfoot -18.3081 16.252
rtoes -16.8558
lfemur -19.2793 1.35025 -15.6779
ltibia 40.887
lfoot -26.8673 -7.81351
ltoes 3.72802
361
root -11.1864 17.3977 -1.75324 -20.4067 82.4983 -23.0286
lowerback 22.0172 0.0618297 -4.95519
upperback 6.18567 -0.6795 -1.31275
thorax -5.46298 -0.137049 1.57009
lowerneck 0.102183 2.32226 5.42699
upperneck -1.82204 3.11585 -1.88165
head -0.463435 1.54076 -1.5063
rclavicle 5.1684e-015 -9.54166e-015
rhumerus -49.4076 13.0867 -87.3806
rradius 43.4918
rwrist -0.625191
rhand -6.3665 -16.5347
rfingers 7.12502
rthumb 19.48 -45.5789
lclavicle 5.1684e-015 -9.54166e-015
lhumerus -35.6343 -8.59022 71.4747
lradius 60.9722
lwrist 1.14442
lhand -7.72822 8.26537
lfingers 7.12502
lthumb 18.1703 37.4367
rfemur -26.93 5.03429 19.8157
rtibia 52.0535
rfoot -18.6135 15.7504
rtoes -16.5316
lfemur -18.7117 1.12417 -15.701
ltibia 40.3885
lfoot -27.0419 -7.69944
ltoes 3.62588
362
root -11.0728 17.4206 -1.74269 -20.9902 82.727 -23.7025
lowerback 22.0786 -0.034413 -4.92671
upperback 6.15858 -0.796346 -1.19062
thorax -5.5155 -0.193422 1.71662
lowerneck 0.122373 2.32098 5.42114
upperneck -1.84815 3.11409 -1.94156
head -0.474209 1.53991 -1.5251
rclavicle 2.70347e-014 1.19271e-014
rhumerus -49.5668 13.0925 -87.2919
rradius 43.3649
rwrist -0.475279
rhand -6.04477 -16.4661
rfingers 7.12502
rthumb 19.7893 -45.4787
lclavicle 2.70347e-014 1.19271e-014
lhumerus -35.3211 -8.8931 71.3297
lradius 62.6417
lwrist 1.82041
lhand -7.75698 7.86052
lfingers 7.12502
lthumb 18.1427 37.0344
rfemur -27.5057 5.13625 19.8518
rtibia 50.271
rfoot -18.8301 15.3678
rtoes -16.1472
lfemur -18.1346 0.905556 -15.7404
ltibia 39.8543
lfoot -27.1966 -7.59837
ltoes 3.51932
363
root -10.9587 17.431 -1.73153 -21.4829 82.9697 -24.2875
lowerback 22.1454 -0.127478 -4.89828
upperback 6.12468 -0.909839 -1.07142
thorax -5.57796 -0.247805 1.85955
lowerneck 0.142853 2.31416 5.41686
upperneck -1.86191 3.10474 -2.00653
head -0.481401 1.53543 -1.54568
rclavicle -9.93923e-015 3.18055e-015
rhumerus -49.7371 13.0777 -87.1905
rradius 43.235
rwrist -0.291232
rhand -5.83005 -16.3673
rfingers 7.12502
rthumb 19.9957 -45.3584
lclavicle -9.93923e-015 3.18055e-015
lhumerus -35.035 -9.21632 71.1868
lradius 64.2442
lwrist 2.40074
lhand -7.79792 7.30847
lfingers 7.12502
lthumb 18.1033 36.486
rfemur -28.0718 5.25203 19.8389
rtibia 48.4331
rfoot -18.9876 15.1011
rtoes -15.7647
lfemur -17.5779 0.694742 -15.7986
ltibia 39.3272
lfoot -27.3431 -7.5127
ltoes 3.41057
